<?xml version="1.0" encoding="UTF-8"?>
<svg id="Layer_2" data-name="Layer 2" xmlns="http://www.w3.org/2000/svg" viewBox="0 0 239.38 109.99">
  <defs>
    <style>
      .cls-1 {
        fill: #ff5113;
      }
    </style>
  </defs>
  <g id="Letters">
    <path class="cls-1" d="M0,0c5.59,61.52,57.04,109.99,119.68,109.99,62.64,0,114.09-48.47,119.7-109.99H0ZM68.91,29.9h5.75s0-6.91,0-6.91h22.41s0,6.91,0,6.91h5.69v9.54s-33.85,0-33.85,0v-9.54ZM119.69,87.47c-17.71,0-32.26-13.71-33.84-31.1h67.69c-1.58,17.4-16.13,31.1-33.85,31.1ZM170.46,38.97h-33.85s0-9.54,0-9.54h5.75s0-6.91,0-6.91h22.41s0,6.91,0,6.91h5.69v9.54Z"/>
  </g>
</svg>