<?xml version="1.0" encoding="UTF-8"?>
<svg id="Layer_2" data-name="Layer 2" xmlns="http://www.w3.org/2000/svg" viewBox="0 0 239.38 116.33">
  <defs>
    <style>
      .cls-1 {
        fill: #ff5113;
      }
    </style>
  </defs>
  <g id="Letters">
    <path class="cls-1" d="M199.11,48.85V0S40.63,0,40.63,0v48.85s-40.63,0-40.63,0v67.48s239.38,0,239.38,0V48.85s-40.27,0-40.27,0ZM68.91,33.07h5.75v-6.91s22.41,0,22.41,0v6.91h5.69s0,9.54,0,9.54h-33.85s0-9.54,0-9.54ZM119.69,90.64c-17.71,0-32.26-13.71-33.84-31.1h67.69c-1.58,17.4-16.13,31.1-33.85,31.1ZM170.46,42.14h-33.85s0-9.54,0-9.54h5.75v-6.91s22.41,0,22.41,0v6.91h5.69s0,9.54,0,9.54Z"/>
  </g>
</svg>